<?xml version="1.0" encoding="utf-8"?>
<!-- Generator: Adobe Illustrator 16.0.0, SVG Export Plug-In . SVG Version: 6.00 Build 0)  -->
<!DOCTYPE svg PUBLIC "-//W3C//DTD SVG 1.1//EN" "http://www.w3.org/Graphics/SVG/1.1/DTD/svg11.dtd">
<svg version="1.1" id="Layer_1" xmlns="http://www.w3.org/2000/svg" xmlns:xlink="http://www.w3.org/1999/xlink" x="0px" y="0px"
	 width="512px" height="512px" viewBox="0 0 512 512" enable-background="new 0 0 512 512" xml:space="preserve">
<rect fill="#2C353E" width="512" height="512"/>
<path fill="#00E7A8" d="M394.051,265.379c-17.977-18.094-42.816-29.129-70.238-29.129c0,0-2.43,0-5.656,0.035
	c18.844-4.32,35.004-15.086,46.223-30.09c9.766-13.18,15.773-29.406,15.773-47.133c0-43.805-35.461-79.266-79.25-79.266H176.375
	c-38.93,0-70.496,31.535-70.496,70.531v214.188c0,38.941,31.566,70.523,70.496,70.523h147.191c4.871,0,9.629-0.492,14.188-1.406
	c48.18-6.848,85.418-47.887,85.418-97.949C423.172,308.195,412.008,283.246,394.051,265.379 M274.801,356.156
	c-1.285,0.109-2.742,0.199-4.113,0.199h-34.156c-21.844,0-39.609-17.777-39.609-39.617V196.5c0-21.855,17.766-39.605,39.609-39.605
	c0,0,23.242-0.09,23.906-0.09c23.879,0,43.289,19.348,43.289,43.27c0,10.551-3.73,20.121-9.996,27.637
	c-0.012,0.07-0.074,0.148-0.125,0.191c-1.098,1.426-2.535,2.941-4.137,4.234c-5.312,4.832-16.953,9.402-28.723,12.934
	c0.742-0.031,1.379-0.109,1.906-0.168c2.484-0.359,4.941-0.547,7.523-0.547c31.438,0,56.887,25.086,56.887,55.973
	C327.062,329.789,304.055,353.781,274.801,356.156"/>
</svg>
